HIERARCHY
ROOT Hips
{
	OFFSET -0.179506 -22.333345 2.821913
	CHANNELS 6 Xposition Yposition Zposition Zrotation Yrotation Xrotation 
	JOINT LeftUpLeg
	{
		OFFSET 6.951974 -9.140623 -0.681533
		CHANNELS 3 Zrotation Yrotation Xrotation
		JOINT LeftLeg
		{
			OFFSET 3.427654 -37.519855 -0.449580
			CHANNELS 3 Zrotation Yrotation Xrotation
			JOINT LeftFoot
			{
				OFFSET -1.359570 -39.796059 -4.369333
				CHANNELS 3 Zrotation Yrotation Xrotation
				JOINT LeftToe
				{
					OFFSET 2.635814 -5.579078 11.928840
					CHANNELS 3 Zrotation Yrotation Xrotation
					End Site
					{
						OFFSET 0.000000 0.000000 0.000000
					}
				}
			}
		}
	}
	JOINT RightUpLeg
	{
		OFFSET -6.767048 -9.052170 -0.431982
		CHANNELS 3 Zrotation Yrotation Xrotation
		JOINT RightLeg
		{
			OFFSET -3.829005 -38.256897 -0.885003
			CHANNELS 3 Zrotation Yrotation Xrotation
			JOINT RightFoot
			{
				OFFSET 1.577377 -39.841461 -4.231180
				CHANNELS 3 Zrotation Yrotation Xrotation
				JOINT RightToe
				{
					OFFSET -2.537174 -4.814398 12.334795
					CHANNELS 3 Zrotation Yrotation Xrotation
					End Site
					{
						OFFSET 0.000000 0.000000 0.000000
					}
				}
			}
		}
	}
	JOINT Spine
	{
		OFFSET -0.253288 10.896323 -2.669631
		CHANNELS 3 Zrotation Yrotation Xrotation
		JOINT Spine1
		{
			OFFSET 0.548704 13.518043 0.109247
			CHANNELS 3 Zrotation Yrotation Xrotation
			JOINT Spine2
			{
				OFFSET 0.145701 5.292222 2.542457
				CHANNELS 3 Zrotation Yrotation Xrotation
				JOINT Neck
				{
					OFFSET -0.277840 21.387037 -4.285703
					CHANNELS 3 Zrotation Yrotation Xrotation
					JOINT Head
					{
						OFFSET 0.515184 6.496960 5.134897
						CHANNELS 3 Zrotation Yrotation Xrotation
						End Site
						{
							OFFSET 0.000000 0.000000 0.000000
						}
					}
				}
				JOINT LeftShoulder
				{
					OFFSET 7.884473 12.174932 -3.408961
					CHANNELS 3 Zrotation Yrotation Xrotation
					JOINT LeftArm
					{
						OFFSET 9.097692 3.046888 -0.886815
						CHANNELS 3 Zrotation Yrotation Xrotation
						JOINT LeftForeArm
						{
							OFFSET 25.961220 -1.277207 -2.745643
							CHANNELS 3 Zrotation Yrotation Xrotation
							JOINT LeftHand
							{
								OFFSET 24.923361 0.898606 -0.117091
								CHANNELS 3 Zrotation Yrotation Xrotation
								End Site
								{
									OFFSET 0.000000 0.000000 0.000000
								}
							}
						}
					}
				}
				JOINT RightShoulder
				{
					OFFSET -8.175920 11.883285 -3.861528
					CHANNELS 3 Zrotation Yrotation Xrotation
					JOINT RightArm
					{
						OFFSET -9.601238 3.255117 -0.914307
						CHANNELS 3 Zrotation Yrotation Xrotation
						JOINT RightForeArm
						{
							OFFSET -25.374195 -1.332924 -2.140099
							CHANNELS 3 Zrotation Yrotation Xrotation
							JOINT RightHand
							{
								OFFSET -25.529810 0.777228 -0.555919
								CHANNELS 3 Zrotation Yrotation Xrotation
								End Site
								{
									OFFSET 0.000000 0.000000 0.000000
								}
							}
						}
					}
				}
			}
		}
	}
}
MOTION
Frames: 17
Frame Time: 0.033333
9.990684 14.278327 99.719765 176.053929 -0.043534 85.570352 4.982270 3.298120 11.056861 -2.934476 -4.029757 -5.069748 1.368980 8.264011 -6.387280 nan nan nan -4.025357 -3.353970 6.933527 4.236089 -1.626444 -2.211458 5.572860 -3.665339 -2.169193 nan nan nan -1.429101 1.003183 4.254236 1.365787 -2.050635 3.997332 1.557862 -0.884973 0.611070 -1.106842 0.450122 0.422751 1.307022 -3.687648 1.401036 -26.296396 0.118479 6.566495 -58.445707 -6.490748 9.725166 7.491617 -24.239460 4.750530 -1.500500 -10.880221 -4.205120 27.585335 5.225997 6.465968 57.147595 6.068021 10.853947 -12.128249 15.582503 -6.422822 0.045570 6.646462 -6.717180 
10.001252 14.284321 99.681976 176.064742 -0.073058 85.628193 5.133905 3.335846 10.822512 -3.235164 -4.078259 -4.744263 1.274283 8.194309 -6.677160 nan nan nan -4.302212 -3.329170 7.210829 4.739385 -1.695185 -2.794048 5.737666 -3.592435 -2.140001 nan nan nan -1.528900 1.012031 4.061520 1.351652 -2.055817 4.027061 1.755442 -0.915380 0.713008 -0.974546 0.396170 0.895694 1.126963 -3.496151 0.698450 -26.236836 0.103991 6.700264 -58.571568 -6.544521 9.592385 7.378415 -24.407462 5.019352 -1.533528 -10.715852 -4.462650 27.261108 5.217220 6.508768 57.378962 6.195984 10.748384 -12.130746 15.596387 -6.615083 0.029322 6.436659 -7.174083 
9.997369 14.277267 99.692520 176.056364 -0.048727 85.580421 5.101112 3.377058 10.844410 -3.154296 -4.103994 -4.685912 1.309865 8.261210 -6.853399 nan nan nan -4.266633 -3.294142 7.318069 4.727767 -1.633536 -2.886434 5.696884 -3.593525 -2.183057 nan nan nan -1.499187 1.009568 4.094466 1.367763 -2.066764 4.039346 1.781579 -0.899851 0.705093 -0.952654 0.327261 1.030991 1.072223 -3.389234 0.514545 -26.296070 0.062906 6.707620 -58.547794 -6.527205 9.589804 7.385917 -24.416418 5.002158 -1.633671 -10.647380 -4.455181 27.180493 5.258326 6.512267 57.430699 6.178200 10.737541 -12.159389 15.592576 -6.647763 0.162514 6.389145 -7.241174 
9.871894 14.423317 99.701729 176.736428 -0.025794 85.368945 5.020966 2.978193 10.977531 -3.090888 -4.369818 -4.547646 1.725927 8.066105 -7.059031 nan nan nan -4.438230 -3.424507 8.145737 4.896506 -1.843364 -3.594218 5.705769 -3.564525 -1.946837 nan nan nan -1.253953 0.902197 4.114412 1.299376 -2.526934 3.972450 1.759665 -0.974148 0.807765 -1.566317 -0.002327 1.567922 1.414298 -2.995807 0.189907 -26.248536 -0.168577 6.999676 -59.007348 -6.812482 9.280321 7.856577 -24.075719 2.902403 -1.950140 -10.908210 -7.334747 26.345840 5.414121 6.485483 58.079134 5.973593 9.888284 -13.350135 15.870793 -11.335944 1.712021 8.181840 -13.772420 
9.878027 14.425942 99.709915 176.623369 0.013638 85.365433 4.955402 2.766138 11.011759 -2.945856 -4.307795 -4.585245 1.800596 8.166242 -7.111990 nan nan nan -4.378694 -3.346910 8.158128 4.872510 -1.719683 -3.596028 5.745642 -3.551406 -1.921489 nan nan nan -1.164021 0.966115 4.052388 1.255687 -2.520753 4.063022 1.712780 -0.956769 0.806079 -1.699861 0.152781 1.406008 1.531770 -3.001320 0.404952 -26.204368 -0.190707 7.018976 -59.067706 -6.866837 9.256276 7.888830 -23.984217 2.825411 -1.918116 -11.119044 -7.441702 26.448622 5.490755 6.552782 58.060297 6.014252 9.882562 -13.362157 15.804107 -11.472067 1.586458 8.466331 -13.969260 
9.887333 14.440437 99.721878 176.453374 -0.095206 85.374642 4.775810 1.881099 11.220730 -3.151976 -3.900541 -4.871804 2.410659 8.595496 -7.085734 nan nan nan -4.567012 -2.792249 8.337150 5.212309 -1.926256 -3.902152 5.822532 -3.737962 -1.780861 nan nan nan -1.305445 0.969168 4.007160 1.125997 -2.429589 3.718746 1.846374 -0.928551 1.278442 -2.036457 0.593589 1.394637 2.626225 -3.191155 0.757231 -25.925276 0.157098 7.511579 -59.428640 -7.534962 8.640390 9.057209 -22.640243 3.863878 -4.606795 -15.287247 -8.296618 26.343648 5.631811 6.799514 58.422135 6.341068 9.699856 -13.659162 15.480183 -11.151310 1.283745 9.914261 -15.283659 
9.891099 14.432930 99.732773 176.317698 -0.087658 85.370212 4.802173 1.638785 11.292214 -3.304512 -3.621909 -4.963524 2.435145 8.686096 -6.980462 nan nan nan -4.546053 -2.699957 8.305250 5.246749 -1.967593 -3.846639 5.835877 -3.763353 -1.771578 nan nan nan -1.235011 1.027611 4.052490 1.067079 -2.379381 3.552357 1.821189 -0.938907 1.409888 -2.057186 0.678198 1.285571 2.729782 -3.235821 0.916942 -25.869764 0.171561 7.612996 -59.617893 -7.671673 8.513179 9.063769 -22.581892 3.751317 -4.228304 -15.442318 -8.881451 26.288469 5.639346 6.868158 58.563755 6.477310 9.773786 -13.717564 15.447014 -11.030007 1.216036 9.760964 -15.444688 
9.888552 14.423278 99.732674 176.318944 -0.069493 85.357692 4.824756 1.576551 11.309093 -3.343874 -3.545614 -4.990141 2.383744 8.703985 -6.951392 nan nan nan -4.516136 -2.660655 8.321750 5.249027 -1.996384 -3.856550 5.830510 -3.799271 -1.769657 nan nan nan -1.189041 1.029424 4.069756 1.036790 -2.356041 3.490519 1.815729 -0.966071 1.496878 -2.065078 0.718273 1.199794 2.753359 -3.301918 0.973423 -25.817310 0.127638 7.707349 -59.713516 -7.714724 8.507600 9.215138 -22.575875 3.948132 -4.453056 -15.526704 -8.796598 26.224205 5.680681 6.898522 58.716741 6.517948 9.782365 -13.865365 15.432232 -10.901214 1.363106 9.685278 -15.480163 
9.896440 14.417281 99.736084 176.313960 -0.069016 85.350410 4.838953 1.545728 11.300759 -3.374828 -3.499360 -4.959780 2.443504 8.694218 -7.018670 nan nan nan -4.495859 -2.672183 8.343340 5.209315 -1.931430 -3.870880 5.831796 -3.787872 -1.794841 nan nan nan -1.188691 1.042474 4.080650 1.030833 -2.344267 3.457226 1.806950 -0.977237 1.563077 -2.087022 0.728255 1.066502 2.780424 -3.384127 1.005920 -25.786004 0.116939 7.675389 -59.778315 -7.804624 8.472199 9.164953 -22.567190 3.833944 -4.339916 -15.437568 -8.948899 26.213708 5.686102 6.882077 58.790191 6.560876 9.799593 -13.920360 15.395022 -10.927079 1.420283 9.651605 -15.491458 
9.900559 14.415228 99.737648 176.311296 -0.076264 85.371863 4.830395 1.510559 11.256269 -3.400848 -3.461341 -4.913139 2.531014 8.719217 -7.085908 nan nan nan -4.479308 -2.668234 8.338156 5.169345 -1.883293 -3.872338 5.814977 -3.824138 -1.838831 nan nan nan -1.194747 1.035255 4.079120 1.018895 -2.351814 3.416202 1.811971 -0.971065 1.598518 -2.122515 0.752021 1.008111 2.845634 -3.417099 1.018527 -25.730591 0.151760 7.638134 -59.833584 -7.783633 8.551844 9.261810 -22.492570 4.096568 -4.600643 -15.580856 -8.751758 26.203092 5.705200 6.885808 58.865708 6.560545 9.797731 -13.970213 15.398768 -10.953927 1.413439 9.732180 -15.650647 
9.896803 14.418687 99.742271 176.305297 -0.068196 85.373301 4.826860 1.504539 11.248627 -3.401307 -3.425250 -4.894877 2.533717 8.735778 -7.086024 nan nan nan -4.477985 -2.678988 8.329462 5.194090 -1.928345 -3.835927 5.804960 -3.816477 -1.842830 nan nan nan -1.175510 1.028021 4.094230 1.021067 -2.356289 3.386497 1.820991 -0.967491 1.616737 -2.152838 0.792118 1.004973 2.842329 -3.436269 1.037729 -25.714735 0.137143 7.650382 -59.918228 -7.752496 8.557158 9.322118 -22.587102 4.074762 -4.625251 -15.485564 -8.775376 26.183586 5.750276 6.943817 58.910975 6.563607 9.779302 -14.018611 15.452608 -11.024635 1.355043 9.771370 -15.775721 
9.897323 14.419794 99.743828 176.291909 -0.061178 85.366689 4.820488 1.516430 11.260800 -3.389453 -3.422356 -4.897472 2.502596 8.740356 -7.035413 nan nan nan -4.490892 -2.678585 8.349513 5.219384 -1.899976 -3.850488 5.811684 -3.785950 -1.812453 nan nan nan -1.153222 1.016036 4.110849 1.013624 -2.360200 3.370465 1.815617 -0.950055 1.627727 -2.157521 0.818966 0.972527 2.815569 -3.409935 1.100565 -25.719571 0.113977 7.692184 -59.936472 -7.750208 8.563821 9.352736 -22.652198 4.113633 -4.611944 -15.454053 -8.774485 26.178447 5.779758 6.986375 58.934271 6.602943 9.777928 -14.026711 15.461457 -11.037642 1.320441 9.764569 -15.841406 
9.904015 14.418492 99.740616 176.281480 -0.059772 85.364622 4.820330 1.526180 11.238189 -3.394065 -3.423436 -4.845801 2.464484 8.761417 -7.045046 nan nan nan -4.478805 -2.676964 8.374257 5.194523 -1.808823 -3.882971 5.823453 -3.772360 -1.812420 nan nan nan -1.148158 0.984970 4.160270 0.998608 -2.381486 3.309871 1.801563 -0.905704 1.639536 -2.144502 0.806436 0.937538 2.820933 -3.330205 1.141876 -25.710598 0.121571 7.715382 -59.968794 -7.752917 8.562155 9.371844 -22.684417 4.135129 -4.520001 -15.438759 -8.872877 26.167818 5.788795 7.003521 58.995085 6.627412 9.796379 -14.018873 15.441715 -11.035981 1.260493 9.773707 -15.958106 
9.905417 14.417005 99.736069 176.286461 -0.068162 85.363246 4.802183 1.518213 11.218895 -3.371849 -3.456296 -4.803693 2.443121 8.761906 -7.101314 nan nan nan -4.467531 -2.654694 8.391688 5.173837 -1.808041 -3.902538 5.834044 -3.805943 -1.843369 nan nan nan -1.143328 0.982684 4.209470 0.983209 -2.390160 3.243568 1.805839 -0.911604 1.663314 -2.120430 0.749185 0.930630 2.784294 -3.251056 1.120584 -25.689882 0.136430 7.714135 -60.064664 -7.789187 8.548252 9.424009 -22.624341 4.146799 -4.452781 -15.464415 -8.934947 26.128179 5.801247 6.989683 59.079265 6.625579 9.830964 -14.026411 15.388768 -10.978127 1.185008 9.820846 -15.966722 
9.904395 14.408545 99.732681 176.283343 -0.071465 85.363092 4.796285 1.546830 11.193918 -3.337266 -3.501725 -4.768241 2.462129 8.733111 -7.134554 nan nan nan -4.464112 -2.629342 8.390675 5.192141 -1.893465 -3.916614 5.837628 -3.836364 -1.839356 nan nan nan -1.128050 0.996310 4.254805 0.981437 -2.374647 3.196336 1.818445 -0.937951 1.685116 -2.109120 0.718156 0.929448 2.706357 -3.202881 1.043069 -25.711042 0.103430 7.735446 -60.092116 -7.830032 8.538325 9.471602 -22.575153 4.152699 -4.474995 -15.464757 -8.938362 26.069306 5.814943 6.977909 59.157487 6.645157 9.822767 -14.063699 15.373932 -10.972370 1.152408 9.791643 -15.974753 
9.892420 14.401107 99.727989 176.287469 -0.072053 85.383344 4.791607 1.579024 11.136205 -3.335828 -3.485783 -4.740633 2.534125 8.695472 -7.153576 nan nan nan -4.482942 -2.590930 8.367572 5.205648 -1.880237 -3.919370 5.862891 -3.820703 -1.837229 nan nan nan -1.101389 0.989022 4.235044 0.976835 -2.363197 3.198911 1.805314 -0.942531 1.704311 -2.111128 0.750091 0.887254 2.671865 -3.210829 1.058340 -25.726332 0.056455 7.764561 -60.087401 -7.871643 8.545387 9.473527 -22.535947 4.130667 -4.473426 -15.454126 -8.972592 26.032546 5.816199 6.990397 59.203121 6.703206 9.798798 -14.093168 15.372389 -11.041757 1.173872 9.733208 -16.070990 
9.886951 14.402284 99.720856 176.316137 -0.055804 85.403671 4.826078 1.578140 11.102281 -3.380895 -3.469455 -4.738543 2.547616 8.648989 -7.152359 nan nan nan -4.476642 -2.626395 8.350772 5.226114 -1.863503 -3.926558 5.857876 -3.817335 -1.844678 nan nan nan -1.081301 0.974119 4.211254 0.971984 -2.363360 3.183134 1.802101 -0.951355 1.739613 -2.092238 0.771482 0.822448 2.630712 -3.220952 1.144312 -25.754322 0.059391 7.772954 -60.051959 -7.888198 8.545931 9.427845 -22.564565 4.175289 -4.404846 -15.420567 -9.021546 26.037640 5.787177 6.986450 59.195589 6.741059 9.809309 -14.083330 15.377607 -11.023240 1.181147 9.693068 -16.114216 
